<svg width="31" height="23" viewBox="0 0 31 23" fill="none" xmlns="http://www.w3.org/2000/svg">
<path d="M7.03711 5.06445C5.82617 5.06445 4.86914 4.09766 4.86914 2.89648C4.86914 1.68555 5.82617 0.71875 7.03711 0.71875C8.23828 0.71875 9.20508 1.68555 9.20508 2.89648C9.20508 4.09766 8.23828 5.06445 7.03711 5.06445ZM23.4629 5.06445C22.2617 5.06445 21.2949 4.09766 21.2949 2.89648C21.2949 1.68555 22.2617 0.71875 23.4629 0.71875C24.6738 0.71875 25.6406 1.68555 25.6406 2.89648C25.6406 4.09766 24.6738 5.06445 23.4629 5.06445ZM3.62891 22.8379C2.97461 22.8379 2.57422 22.252 2.75977 21.6074C2.82812 21.3438 4.26367 15.3672 4.45898 14.127C4.625 13.0723 4.67383 10.9727 4.67383 9.9082C4.67383 9.76172 4.49805 9.71289 4.41016 9.83008C3.6582 10.8945 2.34961 12.75 2.08594 13.0625C1.7832 13.4043 1.29492 13.4727 0.894531 13.248C0.376953 12.9648 0.25 12.4082 0.474609 12.0176C0.552734 11.8711 0.660156 11.7148 0.757812 11.5781L3.32617 7.7793C4.12695 6.59766 5.12305 6.05078 7.03711 6.05078C8.95117 6.05078 9.94727 6.61719 10.748 7.7793L12.2324 9.94727C11.3926 9.9668 10.7969 10.6309 10.6992 11.2852L9.6543 9.83008C9.56641 9.70312 9.40039 9.76172 9.40039 9.89844C9.40039 10.9727 9.43945 13.0723 9.60547 14.127C9.80078 15.3086 11.1387 20.9141 11.3145 21.6074C11.5 22.252 11.0898 22.8379 10.4453 22.8379C9.9668 22.8379 9.63477 22.5742 9.45898 21.9492C9.15625 20.8555 8.10156 16.5293 7.79883 15.6113C7.56445 14.9082 7.41797 14.6445 7.03711 14.6445C6.65625 14.6445 6.5 14.9082 6.27539 15.6113C5.94336 16.6074 4.94727 20.7383 4.61523 21.9492C4.43945 22.5742 4.10742 22.8379 3.62891 22.8379ZM20.0645 22.8379C19.4102 22.8379 19.0098 22.252 19.1855 21.6074C19.3613 20.9141 20.6992 15.3086 20.8945 14.127C21.0605 13.0723 21.0996 10.9727 21.0996 9.89844C21.0996 9.76172 20.9336 9.70312 20.8457 9.83008L19.8105 11.2852C19.7031 10.6309 19.1074 9.9668 18.2676 9.94727L19.752 7.7793C20.5527 6.61719 21.5488 6.05078 23.4629 6.05078C25.3867 6.05078 26.373 6.59766 27.1836 7.7793L29.7422 11.5781C29.8496 11.7148 29.9473 11.8711 30.0254 12.0176C30.25 12.4082 30.1328 12.9648 29.6055 13.248C29.2051 13.4727 28.7168 13.4043 28.4141 13.0625C28.1504 12.75 26.8418 10.8945 26.0898 9.83008C26.002 9.71289 25.8262 9.76172 25.8262 9.9082C25.8262 10.9727 25.875 13.0723 26.041 14.127C26.2461 15.3672 27.6719 21.3438 27.7402 21.6074C27.9258 22.252 27.5254 22.8379 26.8711 22.8379C26.3926 22.8379 26.0703 22.5742 25.8945 21.9492C25.5527 20.7383 24.5566 16.6074 24.2246 15.6113C24 14.9082 23.8535 14.6445 23.4629 14.6445C23.082 14.6445 22.9355 14.9082 22.7109 15.6113C22.3984 16.5293 21.3438 20.8555 21.041 21.9492C20.8652 22.5742 20.543 22.8379 20.0645 22.8379ZM15.25 11.7832C14.3613 11.7832 13.6289 11.0605 13.6289 10.1621C13.6289 9.27344 14.3613 8.55078 15.25 8.55078C16.1387 8.55078 16.8711 9.27344 16.8711 10.1621C16.8711 11.0605 16.1387 11.7832 15.25 11.7832ZM13.1309 22.8379C12.5547 22.8379 12.2129 22.3008 12.3496 21.7734C12.3984 21.6172 13.2773 17.8965 13.4141 17.125C13.5117 16.5 13.541 15.2988 13.541 14.8008C13.541 14.5176 13.4531 14.3223 13.2969 14.1367C12.5645 13.2383 11.6465 12.2031 11.5391 12.0273C11.2949 11.6758 11.3828 11.2461 11.6562 10.9629C11.9785 10.6113 12.5156 10.6211 12.7891 10.9043L13.8633 12.0469C14.3027 12.5156 14.6543 12.7305 15.25 12.7305C15.8457 12.7305 16.207 12.5156 16.6465 12.0469L17.7109 10.9043C17.9844 10.6211 18.5215 10.6113 18.8438 10.9629C19.1172 11.2461 19.2051 11.6758 18.9707 12.0273C18.8535 12.2031 17.9355 13.2383 17.2129 14.1367C17.0566 14.3223 16.9688 14.5176 16.9688 14.8008C16.9688 15.2988 16.9883 16.5 17.0859 17.125C17.2227 17.8965 18.1016 21.6172 18.1504 21.7734C18.2871 22.3008 17.9453 22.8379 17.3691 22.8379C16.9785 22.8379 16.6562 22.6133 16.5293 22.1152C16.3145 21.3633 15.709 18.7852 15.5039 18.1602C15.3867 17.7988 15.3477 17.7695 15.25 17.7695C15.1523 17.7695 15.123 17.7988 14.9961 18.1602C14.791 18.7852 14.1855 21.3633 13.9707 22.1152C13.8438 22.6133 13.5215 22.8379 13.1309 22.8379Z" fill="#F94D02"/>
</svg>
