<svg width="24" height="20" viewBox="0 0 24 20" fill="none" xmlns="http://www.w3.org/2000/svg">
<path d="M3.38086 19.0703C1.27148 19.0703 0.177734 17.9863 0.177734 15.9062V4.01172C0.177734 1.92188 1.27148 0.847656 3.38086 0.847656H20.1094C22.2188 0.847656 23.3125 1.93164 23.3125 4.01172V15.9062C23.3125 17.9863 22.2188 19.0703 20.1094 19.0703H3.38086ZM4.73828 6.21875C5.27539 6.21875 5.69531 5.78906 5.69531 5.26172C5.69531 4.72461 5.27539 4.29492 4.73828 4.29492C4.2207 4.29492 3.78125 4.73438 3.78125 5.26172C3.78125 5.7793 4.2207 6.21875 4.73828 6.21875ZM7.75586 5.92578H19.0742C19.4453 5.92578 19.748 5.62305 19.748 5.26172C19.748 4.88086 19.4355 4.57812 19.0742 4.57812H7.75586C7.38477 4.57812 7.08203 4.88086 7.08203 5.26172C7.08203 5.62305 7.375 5.92578 7.75586 5.92578ZM4.73828 9.30469C5.27539 9.30469 5.69531 8.875 5.69531 8.34766C5.69531 7.81055 5.27539 7.38086 4.73828 7.38086C4.2207 7.38086 3.78125 7.82031 3.78125 8.34766C3.78125 8.86523 4.2207 9.30469 4.73828 9.30469ZM7.75586 9.02148H14.0547C14.4258 9.02148 14.7285 8.70898 14.7285 8.34766C14.7285 7.97656 14.4258 7.66406 14.0547 7.66406H7.75586C7.38477 7.66406 7.08203 7.97656 7.08203 8.34766C7.08203 8.70898 7.38477 9.02148 7.75586 9.02148ZM4.73828 12.3711C5.27539 12.3711 5.69531 11.9512 5.69531 11.4141C5.69531 10.8867 5.27539 10.4668 4.73828 10.4668C4.21094 10.4668 3.78125 10.8965 3.78125 11.4141C3.78125 11.9512 4.21094 12.3711 4.73828 12.3711ZM7.75586 12.0977H19.0742C19.4453 12.0977 19.748 11.8047 19.748 11.4141C19.748 11.043 19.4453 10.7598 19.0742 10.7598H7.75586C7.375 10.7598 7.08203 11.043 7.08203 11.4141C7.08203 11.8047 7.375 12.0977 7.75586 12.0977ZM4.73828 15.6133C5.27539 15.6133 5.69531 15.1836 5.69531 14.6465C5.69531 14.1191 5.27539 13.6895 4.73828 13.6895C4.2207 13.6895 3.78125 14.1289 3.78125 14.6465C3.78125 15.1738 4.2207 15.6133 4.73828 15.6133ZM7.75586 15.3301H14.0547C14.4258 15.3301 14.7285 15.0273 14.7285 14.6465C14.7285 14.2852 14.4355 13.9824 14.0547 13.9824H7.75586C7.375 13.9824 7.08203 14.2852 7.08203 14.6465C7.08203 15.0273 7.38477 15.3301 7.75586 15.3301Z" fill="#F94D02"/>
</svg>
