<svg width="32" height="27" viewBox="0 0 32 27" fill="none" xmlns="http://www.w3.org/2000/svg">
<path d="M3.45898 19.8564C3.2513 19.8564 3.07943 19.7884 2.94336 19.6523C2.80729 19.5163 2.73926 19.348 2.73926 19.1475C2.73926 18.9469 2.80729 18.7786 2.94336 18.6426C3.07943 18.4993 3.2513 18.4277 3.45898 18.4277H4.6084C5.11686 18.4277 5.56087 18.3418 5.94043 18.1699C6.31999 17.9909 6.69954 17.7832 7.0791 17.5469C7.45866 17.3034 7.89193 17.0921 8.37891 16.9131C8.86589 16.734 9.46745 16.6445 10.1836 16.6445C10.8711 16.6445 11.4548 16.734 11.9346 16.9131C12.4215 17.0921 12.8584 17.3034 13.2451 17.5469C13.6318 17.7832 14.0186 17.9909 14.4053 18.1699C14.7992 18.3418 15.2503 18.4277 15.7588 18.4277C16.2673 18.4277 16.7148 18.3418 17.1016 18.1699C17.4954 17.9909 17.8857 17.7832 18.2725 17.5469C18.6592 17.3034 19.0924 17.0921 19.5723 16.9131C20.0592 16.734 20.6501 16.6445 21.3447 16.6445C22.0609 16.6445 22.6624 16.734 23.1494 16.9131C23.6364 17.0921 24.0661 17.3034 24.4385 17.5469C24.818 17.7832 25.1976 17.9909 25.5771 18.1699C25.9639 18.3418 26.4115 18.4277 26.9199 18.4277H28.0693C28.2699 18.4277 28.4382 18.4993 28.5742 18.6426C28.7174 18.7786 28.7891 18.9469 28.7891 19.1475C28.7891 19.348 28.7174 19.5163 28.5742 19.6523C28.4382 19.7884 28.2699 19.8564 28.0693 19.8564H26.9199C26.168 19.8564 25.5413 19.7669 25.04 19.5879C24.5459 19.4089 24.109 19.2012 23.7295 18.9648C23.3571 18.7285 22.9883 18.5208 22.623 18.3418C22.2578 18.1628 21.8317 18.0732 21.3447 18.0732C20.8792 18.0732 20.4639 18.1628 20.0986 18.3418C19.7406 18.5208 19.3682 18.7285 18.9814 18.9648C18.6019 19.2012 18.1579 19.4089 17.6494 19.5879C17.141 19.7669 16.5107 19.8564 15.7588 19.8564C15.014 19.8564 14.3874 19.7669 13.8789 19.5879C13.3704 19.4089 12.9229 19.2012 12.5361 18.9648C12.1566 18.7285 11.7842 18.5208 11.4189 18.3418C11.0537 18.1628 10.6419 18.0732 10.1836 18.0732C9.69661 18.0732 9.27051 18.1628 8.90527 18.3418C8.54004 18.5208 8.16764 18.7285 7.78809 18.9648C7.40853 19.2012 6.9681 19.4089 6.4668 19.5879C5.97266 19.7669 5.35319 19.8564 4.6084 19.8564H3.45898ZM3.45898 23.0146C3.2513 23.0146 3.07943 22.943 2.94336 22.7998C2.80729 22.6637 2.73926 22.4954 2.73926 22.2949C2.73926 22.0944 2.80729 21.9261 2.94336 21.79C3.07943 21.654 3.2513 21.5859 3.45898 21.5859H4.6084C5.11686 21.5859 5.56445 21.4964 5.95117 21.3174C6.34505 21.1383 6.73535 20.9307 7.12207 20.6943C7.50879 20.458 7.94206 20.2503 8.42188 20.0713C8.90885 19.8923 9.49609 19.8027 10.1836 19.8027C10.8424 19.8027 11.4082 19.8923 11.8809 20.0713C12.3607 20.2503 12.7975 20.458 13.1914 20.6943C13.5924 20.9307 13.9935 21.1383 14.3945 21.3174C14.7956 21.4964 15.2503 21.5859 15.7588 21.5859C16.2673 21.5859 16.722 21.4964 17.123 21.3174C17.5241 21.1383 17.9215 20.9307 18.3154 20.6943C18.7165 20.458 19.1533 20.2503 19.626 20.0713C20.1058 19.8923 20.6787 19.8027 21.3447 19.8027C22.0322 19.8027 22.6159 19.8923 23.0957 20.0713C23.5755 20.2503 24.0088 20.458 24.3955 20.6943C24.7894 20.9307 25.1797 21.1383 25.5664 21.3174C25.9603 21.4964 26.4115 21.5859 26.9199 21.5859H28.0693C28.2699 21.5859 28.4382 21.654 28.5742 21.79C28.7174 21.9261 28.7891 22.0944 28.7891 22.2949C28.7891 22.4954 28.7174 22.6637 28.5742 22.7998C28.4382 22.943 28.2699 23.0146 28.0693 23.0146H26.9199C26.168 23.0146 25.5413 22.9215 25.04 22.7354C24.5459 22.5563 24.109 22.3486 23.7295 22.1123C23.3571 21.876 22.9883 21.6683 22.623 21.4893C22.2578 21.3102 21.8317 21.2207 21.3447 21.2207C20.8792 21.2207 20.4639 21.3102 20.0986 21.4893C19.7406 21.6683 19.3682 21.876 18.9814 22.1123C18.6019 22.3486 18.1579 22.5563 17.6494 22.7354C17.141 22.9215 16.5107 23.0146 15.7588 23.0146C15.014 23.0146 14.3874 22.9215 13.8789 22.7354C13.3704 22.5563 12.9229 22.3486 12.5361 22.1123C12.1566 21.876 11.7842 21.6683 11.4189 21.4893C11.0537 21.3102 10.6419 21.2207 10.1836 21.2207C9.69661 21.2207 9.27051 21.3102 8.90527 21.4893C8.54004 21.6683 8.16764 21.876 7.78809 22.1123C7.40853 22.3486 6.9681 22.5563 6.4668 22.7354C5.97266 22.9215 5.35319 23.0146 4.6084 23.0146H3.45898ZM12.0205 15.3232L14.3945 13.7764C14.5521 13.6618 14.6273 13.5365 14.6201 13.4004C14.6201 13.2572 14.5664 13.1283 14.459 13.0137L12.5684 11.0801L9.1416 13.4971C8.81217 13.7262 8.48991 13.8158 8.1748 13.7656C7.86686 13.7155 7.61621 13.583 7.42285 13.3682C7.20085 13.1247 7.08984 12.8203 7.08984 12.4551C7.08984 12.0827 7.28678 11.7604 7.68066 11.4883L11.9775 8.44824C12.2855 8.21908 12.6149 8.1224 12.9658 8.1582C13.3167 8.18685 13.6211 8.33366 13.8789 8.59863L20.1631 15.1299C19.6833 15.223 19.2643 15.359 18.9062 15.5381C18.5553 15.7171 18.2259 15.9033 17.918 16.0967C17.61 16.29 17.2842 16.4548 16.9404 16.5908C16.6038 16.7197 16.21 16.7842 15.7588 16.7842C15.2432 16.7842 14.792 16.6982 14.4053 16.5264C14.0257 16.3545 13.6497 16.154 13.2773 15.9248C12.9121 15.6885 12.4932 15.488 12.0205 15.3232ZM13.5566 5.19336C13.5566 4.99284 13.6247 4.82454 13.7607 4.68848C13.904 4.54525 14.0758 4.47363 14.2764 4.47363C14.8851 4.47363 15.415 4.55599 15.8662 4.7207C16.3174 4.87826 16.765 5.15397 17.209 5.54785C17.6602 5.15397 18.1113 4.87826 18.5625 4.7207C19.0137 4.55599 19.5436 4.47363 20.1523 4.47363C20.3529 4.47363 20.5212 4.54525 20.6572 4.68848C20.7933 4.82454 20.8613 4.99284 20.8613 5.19336C20.8613 5.38672 20.7933 5.55501 20.6572 5.69824C20.5212 5.83431 20.3564 5.90234 20.1631 5.90234C19.6761 5.90234 19.2715 5.95964 18.9492 6.07422C18.627 6.18164 18.3154 6.40365 18.0146 6.74023C17.7712 7.01237 17.5026 7.14844 17.209 7.14844C16.9225 7.14844 16.6576 7.01237 16.4141 6.74023C16.1133 6.40365 15.8018 6.18164 15.4795 6.07422C15.1572 5.95964 14.7526 5.90234 14.2656 5.90234C14.0723 5.90234 13.904 5.83431 13.7607 5.69824C13.6247 5.55501 13.5566 5.38672 13.5566 5.19336ZM21.7207 13.7549C21.2695 13.7549 20.8577 13.6439 20.4854 13.4219C20.113 13.1999 19.8158 12.9027 19.5938 12.5303C19.3717 12.1579 19.2607 11.7461 19.2607 11.2949C19.2607 10.8438 19.3717 10.432 19.5938 10.0596C19.8158 9.68717 20.113 9.38997 20.4854 9.16797C20.8577 8.94596 21.2695 8.83496 21.7207 8.83496C22.179 8.83496 22.5908 8.94596 22.9561 9.16797C23.3285 9.38997 23.6257 9.68717 23.8477 10.0596C24.0697 10.432 24.1807 10.8438 24.1807 11.2949C24.1807 11.7461 24.0697 12.1579 23.8477 12.5303C23.6257 12.9027 23.3285 13.1999 22.9561 13.4219C22.5908 13.6439 22.179 13.7549 21.7207 13.7549Z" fill="white"/>
</svg>
