<svg width="30" height="27" viewBox="0 0 30 27" fill="none" xmlns="http://www.w3.org/2000/svg">
<path d="M13.7822 5.84863C13.3239 5.84863 12.9085 5.73763 12.5361 5.51562C12.1637 5.29362 11.8665 4.99642 11.6445 4.62402C11.4225 4.25163 11.3115 3.83984 11.3115 3.38867C11.3115 2.93034 11.4225 2.51855 11.6445 2.15332C11.8665 1.78092 12.1637 1.48372 12.5361 1.26172C12.9085 1.03971 13.3239 0.928711 13.7822 0.928711C14.2262 0.928711 14.6344 1.03971 15.0068 1.26172C15.3864 1.48372 15.6836 1.78092 15.8984 2.15332C16.1204 2.51855 16.2314 2.93034 16.2314 3.38867C16.2314 3.83984 16.1204 4.25163 15.8984 4.62402C15.6836 4.99642 15.3864 5.29362 15.0068 5.51562C14.6344 5.73763 14.2262 5.84863 13.7822 5.84863ZM3.63086 26.0439C3.39453 25.8005 3.27279 25.5068 3.26562 25.1631C3.26562 24.8265 3.38379 24.54 3.62012 24.3037L7.92773 20.0176L7.1543 16.9668C6.99674 16.3151 6.95378 15.6562 7.02539 14.9902C7.10417 14.3171 7.29036 13.6797 7.58398 13.0781L9.22754 9.78027C9.27767 9.68001 9.27767 9.59049 9.22754 9.51172C9.18457 9.43294 9.10938 9.39355 9.00195 9.39355H6.81055L5.03809 12.96C4.88053 13.2679 4.64779 13.472 4.33984 13.5723C4.0319 13.6725 3.72038 13.6475 3.40527 13.4971C3.09733 13.3538 2.89323 13.1247 2.79297 12.8096C2.69271 12.4873 2.71777 12.1794 2.86816 11.8857L4.99512 7.64258C5.10254 7.44206 5.24935 7.28092 5.43555 7.15918C5.62891 7.03027 5.84375 6.96582 6.08008 6.96582H13.6963C14.6273 6.96582 15.415 7.28809 16.0596 7.93262L18.9277 10.833L23.9551 12.3154C24.2773 12.4085 24.5173 12.6055 24.6748 12.9062C24.8324 13.1999 24.8646 13.5078 24.7715 13.8301C24.6497 14.2168 24.4277 14.471 24.1055 14.5928C23.7832 14.7074 23.5075 14.7288 23.2783 14.6572L17.9395 13.0566C17.7461 12.9922 17.5814 12.8955 17.4453 12.7666L14.792 10.0918C14.7204 10.0202 14.6452 9.99154 14.5664 10.0059C14.4948 10.0202 14.4375 10.0703 14.3945 10.1562L12.0527 14.8398L15.7051 18.4492C15.7767 18.5208 15.8376 18.6032 15.8877 18.6963C15.945 18.7822 15.988 18.8682 16.0166 18.9541L17.875 24.7979C17.9753 25.1201 17.9502 25.4281 17.7998 25.7217C17.6566 26.0225 17.4167 26.223 17.0801 26.3232C16.7865 26.4092 16.4857 26.3841 16.1777 26.248C15.877 26.1191 15.6693 25.8828 15.5547 25.5391L13.7822 20.0176L10.5596 17.2354C10.4808 17.1637 10.402 17.1494 10.3232 17.1924C10.2445 17.2282 10.2087 17.2998 10.2158 17.4072L10.4736 20.2539C10.488 20.4759 10.4736 20.6621 10.4307 20.8125C10.3949 20.9629 10.2946 21.1133 10.1299 21.2637L5.33887 26.0439C5.08105 26.3018 4.78743 26.4199 4.45801 26.3984C4.13574 26.377 3.86003 26.2588 3.63086 26.0439ZM23.6113 21.1992C23.1243 21.1992 22.6768 21.0811 22.2686 20.8447C21.8675 20.6012 21.5452 20.279 21.3018 19.8779C21.0583 19.4697 20.9365 19.0186 20.9365 18.5244C20.9365 18.0303 21.0583 17.5827 21.3018 17.1816C21.5452 16.7734 21.8675 16.4512 22.2686 16.2148C22.6768 15.9714 23.1243 15.8496 23.6113 15.8496C24.1126 15.8496 24.5638 15.9714 24.9648 16.2148C25.373 16.4512 25.6953 16.7734 25.9316 17.1816C26.1751 17.5827 26.2969 18.0303 26.2969 18.5244C26.2969 19.0186 26.1751 19.4697 25.9316 19.8779C25.6953 20.279 25.373 20.6012 24.9648 20.8447C24.5638 21.0811 24.1126 21.1992 23.6113 21.1992Z" fill="white"/>
</svg>
