<svg width="22" height="22" viewBox="0 0 22 22" fill="none" xmlns="http://www.w3.org/2000/svg">
<path d="M9.85156 21.3203C9.26562 21.3203 8.8457 20.9785 8.70898 20.4121L8.2207 18.332C7.87891 18.2148 7.55664 18.0879 7.26367 17.9512L5.45703 19.0645C4.97852 19.3672 4.41211 19.3184 4.01172 18.918L2.76172 17.668C2.36133 17.2676 2.3125 16.6914 2.625 16.2031L3.72852 14.4062C3.5918 14.1035 3.46484 13.791 3.36719 13.4883L1.27734 12.9902C0.710938 12.8535 0.369141 12.4336 0.369141 11.8574V10.0996C0.369141 9.52344 0.710938 9.10352 1.27734 8.9668L3.34766 8.46875C3.45508 8.11719 3.5918 7.80469 3.70898 7.54102L2.60547 5.70508C2.30273 5.20703 2.33203 4.66992 2.74219 4.25977L4.01172 3.00977C4.41211 2.60938 4.93945 2.55078 5.41797 2.84375L7.25391 3.9668C7.54688 3.82031 7.87891 3.69336 8.2207 3.57617L8.70898 1.49609C8.8457 0.919922 9.26562 0.578125 9.85156 0.578125H11.6387C12.2148 0.578125 12.6348 0.919922 12.7715 1.48633L13.2695 3.5957C13.6211 3.71289 13.9336 3.83984 14.2168 3.97656L16.0625 2.84375C16.541 2.55078 17.0586 2.63867 17.4688 3.00977L18.7383 4.25977C19.1484 4.66992 19.1777 5.20703 18.875 5.70508L17.7715 7.54102C17.8887 7.80469 18.0254 8.11719 18.1426 8.46875L20.2129 8.9668C20.7793 9.10352 21.1211 9.52344 21.1211 10.0996V11.8574C21.1211 12.4336 20.7793 12.8535 20.2129 12.9902L18.123 13.4883C18.0254 13.791 17.8887 14.1035 17.752 14.4062L18.8555 16.2031C19.1777 16.6914 19.1191 17.2676 18.7188 17.668L17.4688 18.918C17.0684 19.3184 16.5117 19.3672 16.0332 19.0645L14.2168 17.9512C13.9238 18.0879 13.6016 18.2148 13.2695 18.332L12.7715 20.4121C12.6445 20.9785 12.2148 21.3203 11.6387 21.3203H9.85156ZM10.7402 14.3672C12.625 14.3672 14.1582 12.834 14.1582 10.9492C14.1582 9.06445 12.625 7.53125 10.7402 7.53125C8.85547 7.53125 7.32227 9.06445 7.32227 10.9492C7.32227 12.834 8.85547 14.3672 10.7402 14.3672Z" fill="#F94D02"/>
</svg>
