<svg width="28" height="27" viewBox="0 0 28 27" fill="none" xmlns="http://www.w3.org/2000/svg">
<path d="M17.0479 5.9668C16.5895 5.9668 16.1742 5.85938 15.8018 5.64453C15.4294 5.42253 15.1322 5.12533 14.9102 4.75293C14.6953 4.37337 14.5879 3.96159 14.5879 3.51758C14.5879 3.05924 14.6953 2.64388 14.9102 2.27148C15.1322 1.89909 15.4294 1.60189 15.8018 1.37988C16.1742 1.15788 16.5895 1.04688 17.0479 1.04688C17.499 1.04688 17.9108 1.15788 18.2832 1.37988C18.6556 1.60189 18.9528 1.89909 19.1748 2.27148C19.3968 2.64388 19.5078 3.05924 19.5078 3.51758C19.5078 3.96159 19.3968 4.37337 19.1748 4.75293C18.9528 5.12533 18.6556 5.42253 18.2832 5.64453C17.9108 5.85938 17.499 5.9668 17.0479 5.9668ZM6.04785 14.0449C5.73275 13.8874 5.52148 13.651 5.41406 13.3359C5.30664 13.0208 5.32812 12.7093 5.47852 12.4014L7.82031 7.75C7.92057 7.54948 8.06738 7.38835 8.26074 7.2666C8.46126 7.1377 8.67611 7.07324 8.90527 7.07324H16.1885C16.9189 7.07324 17.542 7.19141 18.0576 7.42773C18.5804 7.6569 19.0674 7.99707 19.5186 8.44824L20.7539 9.69434L22.3223 6.58984C22.4727 6.28906 22.709 6.08496 23.0312 5.97754C23.3607 5.86296 23.6758 5.87728 23.9766 6.02051C24.306 6.17806 24.5173 6.42155 24.6104 6.75098C24.7035 7.07324 24.6748 7.38835 24.5244 7.69629L22.2148 12.3369C22.0859 12.6019 21.8997 12.7881 21.6562 12.8955C21.4199 13.0029 21.1693 13.0387 20.9043 13.0029C20.6465 12.96 20.4209 12.8454 20.2275 12.6592L17.585 10.1348C17.5133 10.0632 17.4346 10.0381 17.3486 10.0596C17.2627 10.0739 17.2018 10.124 17.166 10.21L14.9639 14.6035H19.9697C20.2848 14.6035 20.5426 14.6966 20.7432 14.8828C20.9508 15.069 21.0833 15.2982 21.1406 15.5703C21.2051 15.8353 21.18 16.0931 21.0654 16.3438L18.1543 22.7354C18.0039 23.0719 17.7819 23.2939 17.4883 23.4014C17.2018 23.5088 16.8831 23.498 16.5322 23.3691C16.2171 23.2474 15.9987 23.0218 15.877 22.6924C15.7624 22.363 15.7767 22.0407 15.9199 21.7256L17.9502 17.2031L12.4287 17.5469C11.8988 17.5755 11.444 17.4896 11.0645 17.2891C10.6921 17.0814 10.402 16.8021 10.1943 16.4512C9.98665 16.1003 9.87565 15.7171 9.86133 15.3018C9.84701 14.8792 9.9401 14.4674 10.1406 14.0664L12.2246 9.93066C12.2819 9.8304 12.2819 9.74089 12.2246 9.66211C12.1745 9.58333 12.0921 9.54395 11.9775 9.54395H9.66797L7.68066 13.4971C7.5446 13.7764 7.32975 13.9805 7.03613 14.1094C6.74251 14.2311 6.41309 14.2096 6.04785 14.0449ZM2.86816 25.249C2.71061 24.9196 2.69629 24.5938 2.8252 24.2715C2.96126 23.9564 3.19043 23.7272 3.5127 23.584L8.80859 21.3066L10.0547 17.9766C10.3626 18.2201 10.7207 18.4062 11.1289 18.5352C11.5443 18.6641 11.999 18.7142 12.4932 18.6855L12.9443 18.6533L10.8926 22.7891C10.7637 23.054 10.5596 23.2474 10.2803 23.3691L4.50098 25.8936C4.37207 25.9508 4.20378 25.9795 3.99609 25.9795C3.78841 25.9795 3.58073 25.9258 3.37305 25.8184C3.17253 25.7109 3.00423 25.5212 2.86816 25.249ZM22.2041 26.377C21.7529 26.377 21.3376 26.266 20.958 26.0439C20.5856 25.8291 20.2884 25.5355 20.0664 25.1631C19.8516 24.7907 19.7441 24.3717 19.7441 23.9062C19.7441 23.4479 19.8516 23.0326 20.0664 22.6602C20.2884 22.2878 20.5856 21.9906 20.958 21.7686C21.3376 21.5465 21.7529 21.4355 22.2041 21.4355C22.6696 21.4355 23.0885 21.5465 23.4609 21.7686C23.8333 21.9906 24.1305 22.2878 24.3525 22.6602C24.5745 23.0326 24.6855 23.4479 24.6855 23.9062C24.6855 24.3717 24.5745 24.7907 24.3525 25.1631C24.1305 25.5355 23.8333 25.8291 23.4609 26.0439C23.0885 26.266 22.6696 26.377 22.2041 26.377Z" fill="white"/>
</svg>
