<svg width="22" height="20" viewBox="0 0 22 20" fill="none" xmlns="http://www.w3.org/2000/svg">
<path d="M0.566406 18.3965V1.69727C0.566406 1.16016 0.976562 0.730469 1.52344 0.730469C2.07031 0.730469 2.48047 1.16016 2.48047 1.69727V10.1152L6.02539 8.06445C6.02539 8.03516 6.02539 8.00586 6.02539 7.97656C6.02539 6.95117 6.85547 6.11133 7.89062 6.11133C8.91602 6.11133 9.74609 6.95117 9.74609 7.97656C9.74609 8.07422 9.73633 8.17188 9.72656 8.26953L11.748 9.98828C12.0117 9.85156 12.3047 9.7832 12.6074 9.7832C13.0371 9.7832 13.4375 9.92969 13.75 10.1738L18.1348 7.54688C18.1152 7.42969 18.0957 7.30273 18.0957 7.17578C18.0957 6.15039 18.9355 5.31055 19.9609 5.31055C20.9863 5.31055 21.8262 6.15039 21.8262 7.17578C21.8262 8.20117 20.9863 9.04102 19.9609 9.04102C19.5801 9.04102 19.2188 8.92383 18.9258 8.71875L14.4531 11.3945C14.4629 11.4727 14.4727 11.5605 14.4727 11.6387C14.4727 12.6738 13.6328 13.5039 12.6074 13.5039C11.582 13.5039 10.752 12.6738 10.752 11.6387C10.752 11.4238 10.791 11.209 10.8594 11.0137L9.02344 9.45117C8.71094 9.69531 8.31055 9.8418 7.89062 9.8418C7.39258 9.8418 6.95312 9.64648 6.62109 9.33398L2.48047 11.7363V17.0488C2.48047 17.2539 2.54883 17.3223 2.75391 17.3223H20.9668C21.4941 17.3223 21.9336 17.7324 21.9336 18.2793C21.9336 18.8262 21.4941 19.2363 20.9668 19.2363H1.40625C0.898438 19.2363 0.566406 18.9043 0.566406 18.3965Z" fill="#F94D02"/>
</svg>
